<?xml version="1.0" standalone="no"?>
<!DOCTYPE svg PUBLIC "-//W3C//DTD SVG 20010904//EN"
 "http://www.w3.org/TR/2001/REC-SVG-20010904/DTD/svg10.dtd">
<svg version="1.0" xmlns="http://www.w3.org/2000/svg"
 width="144.000000pt" height="144.000000pt" viewBox="0 0 144.000000 144.000000"
 preserveAspectRatio="xMidYMid meet">

<g transform="translate(0.000000,144.000000) scale(0.100000,-0.100000)"
fill="#000000" stroke="none">
<path d="M190 1231 c-25 -27 -50 -55 -57 -64 -7 -8 -18 -17 -25 -20 -10 -3 -9
-8 3 -23 10 -11 17 -37 17 -63 1 -64 19 -101 49 -101 24 0 25 -2 18 -32 -15
-58 -14 -191 1 -219 11 -22 43 -46 49 -37 1 2 16 64 34 138 17 74 36 151 41
171 10 37 5 69 -10 69 -4 0 -15 -11 -24 -25 -21 -32 -56 -34 -57 -2 -2 40 3
72 13 85 14 17 43 15 63 -4 21 -22 25 -16 32 49 4 42 2 59 -9 71 -9 8 -18 12
-21 9 -3 -3 -13 1 -21 8 -27 25 -45 39 -48 38 -2 0 -23 -22 -48 -48z m70 -38
c-1 -18 -18 -35 -24 -24 -4 6 -4 16 -1 21 7 12 25 13 25 3z m58 -5 c12 -12 17
-48 7 -48 -9 0 -45 40 -45 50 0 14 23 13 38 -2z m-118 -78 c-18 -11 -24 -6
-16 16 5 14 9 15 19 5 9 -9 9 -14 -3 -21z m11 -107 c11 -13 10 -14 -11 -11
-27 3 -38 35 -25 66 6 14 9 11 16 -11 4 -16 13 -35 20 -44z"/>
<path d="M1278 1100 c12 -5 22 -15 22 -21 0 -7 3 -9 6 -6 10 10 -16 37 -35 36
-11 0 -9 -3 7 -9z"/>
<path d="M262 1088 c-17 -17 -15 -38 3 -38 9 0 15 9 15 25 0 29 -1 30 -18 13z"/>
<path d="M1200 1065 c-7 -8 -20 -15 -29 -15 -10 0 -12 -3 -5 -8 6 -4 14 -14
17 -22 4 -10 6 -9 6 6 1 12 8 28 17 35 14 11 18 10 30 -6 11 -15 14 -16 14 -3
0 9 -7 19 -16 22 -21 8 -20 8 -34 -9z"/>
<path d="M1010 1010 c0 -5 5 -10 10 -10 6 0 10 5 10 10 0 6 -4 10 -10 10 -5 0
-10 -4 -10 -10z"/>
<path d="M1086 1011 c-4 -5 3 -7 14 -4 11 3 27 0 35 -7 13 -11 14 -10 9 4 -7
17 -49 22 -58 7z"/>
<path d="M1317 996 c-4 -10 -1 -13 8 -9 8 3 12 9 9 14 -7 12 -11 11 -17 -5z"/>
<path d="M1017 974 c-3 -5 1 -15 9 -22 16 -14 18 -5 5 17 -5 7 -11 9 -14 5z"/>
<path d="M1257 966 c-4 -10 -1 -13 8 -9 8 3 12 9 9 14 -7 12 -11 11 -17 -5z"/>
<path d="M1082 956 c10 -11 21 -13 48 -6 l35 10 -36 -4 c-20 -3 -42 0 -48 5
-6 5 -5 2 1 -5z"/>
<path d="M969 943 c-13 -17 -13 -17 6 -3 11 8 22 16 24 17 2 2 0 3 -6 3 -6 0
-17 -8 -24 -17z"/>
<path d="M1197 936 c-4 -10 -1 -13 8 -9 8 3 12 9 9 14 -7 12 -11 11 -17 -5z"/>
<path d="M940 910 c13 -23 20 -26 20 -6 0 8 -7 16 -15 20 -13 4 -14 2 -5 -14z"/>
<path d="M1137 899 c-10 -6 -25 -8 -33 -5 -8 3 -14 1 -14 -4 0 -15 34 -12 56
5 22 17 17 19 -9 4z"/>
<path d="M886 887 c3 -10 9 -15 12 -12 3 3 0 11 -7 18 -10 9 -11 8 -5 -6z"/>
<path d="M800 856 c0 -2 7 -6 15 -10 8 -3 15 -1 15 4 0 6 -7 10 -15 10 -8 0
-15 -2 -15 -4z"/>
<path d="M1045 850 c-3 -6 1 -7 9 -4 18 7 21 14 7 14 -6 0 -13 -4 -16 -10z"/>
<path d="M638 830 c-20 -11 -40 -25 -44 -31 -3 -6 5 -4 19 5 20 13 26 14 30 4
4 -9 6 -8 6 3 1 9 11 21 24 27 12 6 18 11 12 11 -5 0 -27 -9 -47 -19z"/>
<path d="M767 829 c7 -7 15 -10 18 -7 3 3 -2 9 -12 12 -14 6 -15 5 -6 -5z"/>
<path d="M730 815 c-7 -9 -11 -17 -9 -20 3 -2 10 5 17 15 14 24 10 26 -8 5z"/>
<path d="M1113 813 c-38 -19 -40 -27 -13 -70 20 -34 44 -43 53 -20 3 6 6 -11
6 -39 2 -88 -28 -230 -71 -343 -12 -34 -19 -21 -9 17 11 39 2 41 -46 11 -25
-16 -37 -19 -42 -10 -10 15 -105 7 -153 -13 -20 -9 -43 -25 -51 -37 -21 -29
-51 -21 -55 14 -2 19 -9 27 -23 27 -13 0 -19 7 -19 24 0 29 -18 44 -26 22 -8
-21 -40 -21 -48 0 -10 26 -7 61 7 72 24 19 73 24 87 7 20 -24 30 -17 19 15 -8
23 -7 37 5 61 15 31 22 79 11 79 -3 0 -64 -29 -136 -65 -119 -60 -130 -68
-123 -88 9 -30 24 -48 35 -41 5 3 12 -9 15 -26 8 -35 41 -61 102 -79 24 -7 53
-23 64 -37 14 -15 32 -24 50 -24 23 0 28 -4 28 -23 0 -13 -5 -28 -11 -34 -16
-16 -3 -60 19 -67 26 -9 75 -62 68 -74 -12 -19 -100 -42 -162 -42 -156 0 -307
120 -382 302 -25 64 -51 94 -37 46 20 -73 85 -178 151 -245 94 -97 160 -128
264 -127 115 0 177 29 273 124 139 139 206 326 207 573 0 139 0 138 -57 110z"/>
<path d="M964 804 c-18 -14 -18 -15 4 -4 12 6 22 13 22 15 0 8 -5 6 -26 -11z"/>
<path d="M905 799 c-9 -14 0 -22 18 -17 13 2 13 5 2 15 -10 9 -16 9 -20 2z"/>
<path d="M870 760 c-23 -7 -23 -8 -3 -9 12 -1 25 4 28 9 3 6 5 10 3 9 -2 -1
-14 -5 -28 -9z"/>
<path d="M739 707 c17 -22 35 -21 52 1 13 16 12 16 -4 3 -16 -13 -22 -13 -40
-1 -20 12 -21 12 -8 -3z"/>
<path d="M328 664 c-27 -13 -48 -29 -48 -35 0 -6 7 -3 16 6 9 9 22 15 28 13 6
-2 22 6 35 19 30 28 28 28 -31 -3z"/>
<path d="M675 650 c-3 -6 1 -7 9 -4 18 7 21 14 7 14 -6 0 -13 -4 -16 -10z"/>
<path d="M516 620 c-16 -10 -33 -17 -38 -14 -4 3 -8 0 -8 -5 0 -14 6 -14 39 4
16 8 31 12 33 9 3 -3 8 2 11 11 8 19 -1 18 -37 -5z"/>
<path d="M240 613 c-14 -3 -29 -8 -33 -13 -5 -4 3 -5 17 -3 14 3 32 0 40 -6
12 -10 13 -8 9 8 -3 12 -6 20 -7 20 0 -1 -12 -4 -26 -6z"/>
<path d="M115 550 c-3 -5 -2 -10 4 -10 5 0 13 5 16 10 3 6 2 10 -4 10 -5 0
-13 -4 -16 -10z"/>
<path d="M365 490 c-3 -5 -2 -10 4 -10 5 0 13 5 16 10 3 6 2 10 -4 10 -5 0
-13 -4 -16 -10z"/>
<path d="M280 445 c-15 -18 -51 -20 -70 -2 -12 10 -12 9 -1 -5 18 -24 54 -23
76 2 10 11 16 20 13 20 -3 0 -11 -7 -18 -15z"/>
<path d="M713 418 c-2 -5 2 -8 9 -9 7 0 35 -3 61 -5 35 -3 48 -1 45 7 -5 14
-107 19 -115 7z"/>
<path d="M165 380 c-3 -6 1 -7 9 -4 18 7 21 14 7 14 -6 0 -13 -4 -16 -10z"/>
</g>
</svg>
